<mxfile host="Electron" agent="Mozilla/5.0 (Windows NT 10.0; Win64; x64) AppleWebKit/537.36 (KHTML, like Gecko) draw.io/26.0.16 Chrome/132.0.6834.196 Electron/34.2.0 Safari/537.36" version="26.0.16">
  <diagram id="C5RBs43oDa-KdzZeNtuy" name="Page-1">
    <mxGraphModel dx="1154" dy="602" grid="1" gridSize="10" guides="1" tooltips="1" connect="1" arrows="1" fold="1" page="1" pageScale="1" pageWidth="827" pageHeight="1169" math="0" shadow="0">
      <root>
        <mxCell id="WIyWlLk6GJQsqaUBKTNV-0" />
        <mxCell id="WIyWlLk6GJQsqaUBKTNV-1" parent="WIyWlLk6GJQsqaUBKTNV-0" />
        <mxCell id="4_WHrTjY_rRy1OsxdFNi-9" value="工作区&#xa;local working directory" style="swimlane;fontStyle=0;align=center;verticalAlign=top;childLayout=stackLayout;horizontal=1;startSize=40;horizontalStack=0;resizeParent=1;resizeLast=0;collapsible=1;marginBottom=0;rounded=0;shadow=1;strokeWidth=1;" vertex="1" parent="WIyWlLk6GJQsqaUBKTNV-1">
          <mxGeometry x="220" y="480" width="160" height="100" as="geometry">
            <mxRectangle x="220" y="480" width="140" height="40" as="alternateBounds" />
          </mxGeometry>
        </mxCell>
        <mxCell id="4_WHrTjY_rRy1OsxdFNi-10" value="存储本地修改" style="text;align=left;verticalAlign=top;spacingLeft=4;spacingRight=4;overflow=hidden;rotatable=0;points=[[0,0.5],[1,0.5]];portConstraint=eastwest;fontSize=11;shadow=1;" vertex="1" parent="4_WHrTjY_rRy1OsxdFNi-9">
          <mxGeometry y="40" width="160" height="26" as="geometry" />
        </mxCell>
        <mxCell id="4_WHrTjY_rRy1OsxdFNi-15" value="暂存区&#xa;staging aera" style="swimlane;fontStyle=0;align=center;verticalAlign=top;childLayout=stackLayout;horizontal=1;startSize=40;horizontalStack=0;resizeParent=1;resizeLast=0;collapsible=1;marginBottom=0;rounded=0;shadow=1;strokeWidth=1;" vertex="1" parent="WIyWlLk6GJQsqaUBKTNV-1">
          <mxGeometry x="520" y="480" width="160" height="100" as="geometry">
            <mxRectangle x="520" y="480" width="130" height="40" as="alternateBounds" />
          </mxGeometry>
        </mxCell>
        <mxCell id="4_WHrTjY_rRy1OsxdFNi-16" value="代码提交之前的临时保存点" style="text;align=left;verticalAlign=top;spacingLeft=4;spacingRight=4;overflow=hidden;rotatable=0;points=[[0,0.5],[1,0.5]];portConstraint=eastwest;fontSize=9;shadow=1;" vertex="1" parent="4_WHrTjY_rRy1OsxdFNi-15">
          <mxGeometry y="40" width="160" height="26" as="geometry" />
        </mxCell>
        <mxCell id="4_WHrTjY_rRy1OsxdFNi-17" value="本地存储库&#xa;local repository" style="swimlane;fontStyle=0;align=center;verticalAlign=top;childLayout=stackLayout;horizontal=1;startSize=40;horizontalStack=0;resizeParent=1;resizeLast=0;collapsible=1;marginBottom=0;rounded=0;shadow=1;strokeWidth=1;" vertex="1" parent="WIyWlLk6GJQsqaUBKTNV-1">
          <mxGeometry x="840" y="480" width="160" height="100" as="geometry">
            <mxRectangle x="840" y="480" width="140" height="40" as="alternateBounds" />
          </mxGeometry>
        </mxCell>
        <mxCell id="4_WHrTjY_rRy1OsxdFNi-18" value="本地存储提交的地方" style="text;align=left;verticalAlign=top;spacingLeft=4;spacingRight=4;overflow=hidden;rotatable=0;points=[[0,0.5],[1,0.5]];portConstraint=eastwest;fontSize=9;shadow=1;" vertex="1" parent="4_WHrTjY_rRy1OsxdFNi-17">
          <mxGeometry y="40" width="160" height="26" as="geometry" />
        </mxCell>
        <mxCell id="4_WHrTjY_rRy1OsxdFNi-19" value="云端存储库&#xa;remote repository" style="swimlane;fontStyle=0;align=center;verticalAlign=top;childLayout=stackLayout;horizontal=1;startSize=40;horizontalStack=0;resizeParent=1;resizeLast=0;collapsible=1;marginBottom=0;rounded=0;shadow=1;strokeWidth=1;" vertex="1" parent="WIyWlLk6GJQsqaUBKTNV-1">
          <mxGeometry x="840" y="260" width="160" height="100" as="geometry">
            <mxRectangle x="840" y="320" width="140" height="40" as="alternateBounds" />
          </mxGeometry>
        </mxCell>
        <mxCell id="4_WHrTjY_rRy1OsxdFNi-20" value="云端存储提交的地方" style="text;align=left;verticalAlign=top;spacingLeft=4;spacingRight=4;overflow=hidden;rotatable=0;points=[[0,0.5],[1,0.5]];portConstraint=eastwest;fontSize=9;shadow=1;" vertex="1" parent="4_WHrTjY_rRy1OsxdFNi-19">
          <mxGeometry y="40" width="160" height="26" as="geometry" />
        </mxCell>
        <mxCell id="4_WHrTjY_rRy1OsxdFNi-30" value="git add" style="html=1;verticalAlign=bottom;endArrow=block;curved=0;rounded=0;fontSize=12;startSize=8;endSize=8;exitX=1;exitY=0.25;exitDx=0;exitDy=0;entryX=0;entryY=0.25;entryDx=0;entryDy=0;shadow=1;" edge="1" target="4_WHrTjY_rRy1OsxdFNi-15" parent="WIyWlLk6GJQsqaUBKTNV-1" source="4_WHrTjY_rRy1OsxdFNi-9">
          <mxGeometry relative="1" as="geometry">
            <mxPoint x="580" y="565" as="sourcePoint" />
            <mxPoint x="610" y="590" as="targetPoint" />
          </mxGeometry>
        </mxCell>
        <mxCell id="4_WHrTjY_rRy1OsxdFNi-32" value="git commit" style="html=1;verticalAlign=bottom;endArrow=block;curved=0;rounded=0;fontSize=12;startSize=8;endSize=8;exitX=1;exitY=0.25;exitDx=0;exitDy=0;entryX=0;entryY=0.25;entryDx=0;entryDy=0;shadow=1;" edge="1" parent="WIyWlLk6GJQsqaUBKTNV-1" source="4_WHrTjY_rRy1OsxdFNi-15" target="4_WHrTjY_rRy1OsxdFNi-17">
          <mxGeometry relative="1" as="geometry">
            <mxPoint x="770" y="560" as="sourcePoint" />
            <mxPoint x="850" y="560" as="targetPoint" />
          </mxGeometry>
        </mxCell>
        <mxCell id="4_WHrTjY_rRy1OsxdFNi-33" value="git reset" style="html=1;verticalAlign=bottom;endArrow=open;dashed=1;endSize=8;curved=0;rounded=0;exitX=0;exitY=0.75;exitDx=0;exitDy=0;fontSize=12;entryX=1;entryY=0.75;entryDx=0;entryDy=0;shadow=1;" edge="1" parent="WIyWlLk6GJQsqaUBKTNV-1" source="4_WHrTjY_rRy1OsxdFNi-17" target="4_WHrTjY_rRy1OsxdFNi-15">
          <mxGeometry relative="1" as="geometry">
            <mxPoint x="770" y="580" as="targetPoint" />
            <mxPoint x="850" y="580" as="sourcePoint" />
          </mxGeometry>
        </mxCell>
        <mxCell id="4_WHrTjY_rRy1OsxdFNi-34" value="git push" style="html=1;verticalAlign=bottom;endArrow=block;curved=0;rounded=0;fontSize=12;startSize=8;endSize=8;entryX=0.25;entryY=1;entryDx=0;entryDy=0;exitX=0.25;exitY=0;exitDx=0;exitDy=0;shadow=1;" edge="1" parent="WIyWlLk6GJQsqaUBKTNV-1" source="4_WHrTjY_rRy1OsxdFNi-17" target="4_WHrTjY_rRy1OsxdFNi-19">
          <mxGeometry relative="1" as="geometry">
            <mxPoint x="860" y="460" as="sourcePoint" />
            <mxPoint x="892.5" y="270" as="targetPoint" />
          </mxGeometry>
        </mxCell>
        <mxCell id="4_WHrTjY_rRy1OsxdFNi-35" value="git pull" style="html=1;verticalAlign=bottom;endArrow=open;dashed=1;endSize=8;curved=0;rounded=0;exitX=0.75;exitY=1;exitDx=0;exitDy=0;fontSize=12;entryX=0.75;entryY=0;entryDx=0;entryDy=0;shadow=1;" edge="1" parent="WIyWlLk6GJQsqaUBKTNV-1" source="4_WHrTjY_rRy1OsxdFNi-19" target="4_WHrTjY_rRy1OsxdFNi-17">
          <mxGeometry relative="1" as="geometry">
            <mxPoint x="920" y="594" as="targetPoint" />
            <mxPoint x="1000" y="594" as="sourcePoint" />
          </mxGeometry>
        </mxCell>
        <mxCell id="4_WHrTjY_rRy1OsxdFNi-38" value="" style="shape=crossbar;whiteSpace=wrap;html=1;rounded=1;shadow=1;" vertex="1" parent="WIyWlLk6GJQsqaUBKTNV-1">
          <mxGeometry x="215" y="610" width="770" height="20" as="geometry" />
        </mxCell>
        <mxCell id="4_WHrTjY_rRy1OsxdFNi-39" value="Local" style="text;strokeColor=none;fillColor=none;html=1;fontSize=24;fontStyle=1;verticalAlign=middle;align=center;shadow=1;" vertex="1" parent="WIyWlLk6GJQsqaUBKTNV-1">
          <mxGeometry x="600" y="625" width="100" height="40" as="geometry" />
        </mxCell>
        <mxCell id="4_WHrTjY_rRy1OsxdFNi-42" value="" style="shape=crossbar;whiteSpace=wrap;html=1;rounded=1;direction=south;shadow=1;" vertex="1" parent="WIyWlLk6GJQsqaUBKTNV-1">
          <mxGeometry x="1040" y="260" width="20" height="180" as="geometry" />
        </mxCell>
        <mxCell id="4_WHrTjY_rRy1OsxdFNi-43" value="Remote" style="text;strokeColor=none;fillColor=none;html=1;fontSize=24;fontStyle=1;verticalAlign=middle;align=center;shadow=1;" vertex="1" parent="WIyWlLk6GJQsqaUBKTNV-1">
          <mxGeometry x="1060" y="330" width="100" height="40" as="geometry" />
        </mxCell>
      </root>
    </mxGraphModel>
  </diagram>
</mxfile>
